M48
;Layer_Color=9474304
;FILE_FORMAT=4:4
METRIC,LZ
;TYPE=PLATED
T01F00S00C0.3000
T02F00S00C0.7000
T03F00S00C0.8500
T04F00S00C0.9144
T05F00S00C1.1000
;TYPE=NON_PLATED
T06F00S00C2.2000
%
T01
X00136Y00076
Y00136
X00166
X00196
X00226
X00256
X00286
X00316
X00346
X00361Y00106
X00391
X00406Y00136
X00428Y00139
X00451Y00106
X00481Y00046
X00511
X00526Y00076
Y00016
X00496
X00466
X00436
X00406
X00391Y00046
X00361
X00346Y00076
X00316
X00286
X00256
X00226
X00211Y00046
X00226Y00016
X00286
X00316
X00346
X00301Y00046
Y00106
X00331
X00151
X00166Y00076
X00151Y00046
X00166Y00016
X00556
X00586
X00616
X00676
X00706
X00691Y00046
X00706Y00076
X00676
X00667Y00103
X00661Y00106
X00691
X00721
X00706Y00136
X00676
X00646
X00616
X00631Y00106
X00571
Y00046
X00541
X00556278Y00175578
X00542Y0019
X00548Y00206
X005521Y002272
X00541Y00225
Y00274
X00541Y00286
X00571
X0058Y00311
X00556Y00316
X00559Y00326
X00561Y00356
X00586Y00376
X00616
X00646
X00676
X00691Y00346
X00721
X00706Y00316
X00676
X00691Y00286
X00721
X00706Y00256
X00676
X00675Y00227
X00676Y00196
X00706
X00715Y00207
X00721Y00226
Y00166
X00691
X00661
X00646Y00196
X0063Y00196
X006269Y002362
X00603Y00236
X00586Y00256
X00617032Y00275032
X00611Y00309
X00616Y00316
X00601Y00346
X00628Y00354
X00661Y00346
Y00286
X00646Y00256
X00586Y00196
X00526
X00513Y00223
X00504Y00227
X00496Y00256
X00478Y00263
X00466Y00256
X00436
X00406
X00421Y00286
X00451
X00481
X00473Y00296
X00472Y00305
X00466Y00316
X00488746Y0033125
X00519Y00331
X00537Y00327
X00526Y00376
X00504Y00364
X00451Y00346
X00421
X00436Y00376
X00406
Y00316
X00391Y00286
X00361
X00331
X00301
X00271
X00241
X00211
X00181
X00151
X00166Y00256
X00196
X00226
X00256
X00286
X00316
X00346
X00361Y00226
X00391
X00421
X00432Y00202
X00406Y00196
X00391Y00166
X00361
X00316Y00196
X00286
X00256
X00226
X00196
X00166
X00181Y00226
X00211
X00241
X00271
X00301
X00331
X00346Y00316
X00316
X00286
X00244Y00322
X00227Y00329
X00211Y00346
X00181
X00196Y00376
X00226
X00256
X00286
X00316
X00166
X00151Y00226
Y00166
X00181
X00211
X00241
X005232Y002767
X00136Y00256
Y00196
Y00376
X00116Y00371
T02
X003448Y001694
Y001894
Y002094
Y002294
T03
X006723Y002725
Y002925
T04
X005327Y000339
Y001101
X005581
X005835
X006089
Y000339
X005835
X005581
T05
X004135Y001041
X004389
X004643
X004897
T06
X0003556Y000382
X003426
X007109
Y00388
X003426
X0003556
M30
