<svg xmlns="http://www.w3.org/2000/svg" width="900" height="560" viewBox="0 0 900 560">
<rect width="100%" height="100%" fill="#ffffff" />
<style>
text { font-family: Arial, sans-serif; font-size: 14px; fill: #222; }
.title { font-size: 22px; font-weight: 700; }
.note { font-size: 13px; fill: #555; }
.label { font-size: 16px; font-weight: 600; }
</style>
<text x="450.0" y="24" text-anchor="middle" class="title">Tag Measurement Error vs Output Position Error (cm)</text>
<text x="450.0" y="43" text-anchor="middle" class="note">Generated geometry: X/Y range +/-100 m, Z range +/-10 m</text>
<line x1="74" y1="485.00" x2="80" y2="485.00" stroke="#222" /><line x1="80" y1="485.00" x2="870" y2="485.00" stroke="#e6e6e6" /><text x="68" y="489.00" text-anchor="end">0.000</text><line x1="74" y1="398.40" x2="80" y2="398.40" stroke="#222" /><line x1="80" y1="398.40" x2="870" y2="398.40" stroke="#e6e6e6" /><text x="68" y="402.40" text-anchor="end">11.998</text><line x1="74" y1="311.80" x2="80" y2="311.80" stroke="#222" /><line x1="80" y1="311.80" x2="870" y2="311.80" stroke="#e6e6e6" /><text x="68" y="315.80" text-anchor="end">23.996</text><line x1="74" y1="225.20" x2="80" y2="225.20" stroke="#222" /><line x1="80" y1="225.20" x2="870" y2="225.20" stroke="#e6e6e6" /><text x="68" y="229.20" text-anchor="end">35.994</text><line x1="74" y1="138.60" x2="80" y2="138.60" stroke="#222" /><line x1="80" y1="138.60" x2="870" y2="138.60" stroke="#e6e6e6" /><text x="68" y="142.60" text-anchor="end">47.992</text><line x1="74" y1="52.00" x2="80" y2="52.00" stroke="#222" /><line x1="80" y1="52.00" x2="870" y2="52.00" stroke="#e6e6e6" /><text x="68" y="56.00" text-anchor="end">59.990</text>
<line x1="80" y1="52" x2="80" y2="485" stroke="#222" stroke-width="2" />
<line x1="80" y1="485" x2="870" y2="485" stroke="#222" stroke-width="2" />
<line x1="80.00" y1="485" x2="80.00" y2="491" stroke="#222" /><text x="80.00" y="518" text-anchor="middle">0.0</text><line x1="238.00" y1="485" x2="238.00" y2="491" stroke="#222" /><text x="238.00" y="518" text-anchor="middle">6.0</text><line x1="396.00" y1="485" x2="396.00" y2="491" stroke="#222" /><text x="396.00" y="518" text-anchor="middle">12.0</text><line x1="554.00" y1="485" x2="554.00" y2="491" stroke="#222" /><text x="554.00" y="518" text-anchor="middle">18.0</text><line x1="712.00" y1="485" x2="712.00" y2="491" stroke="#222" /><text x="712.00" y="518" text-anchor="middle">24.0</text><line x1="870.00" y1="485" x2="870.00" y2="491" stroke="#222" /><text x="870.00" y="518" text-anchor="middle">30.0</text>
<polyline points="80.00,484.97 96.12,481.29 112.24,477.92 128.37,474.19 144.49,470.74 160.61,467.55 176.73,463.77 192.86,459.76 208.98,457.11 225.10,452.64 241.22,449.41 257.35,444.16 273.47,442.30 289.59,438.67 305.71,432.35 321.84,430.54 337.96,427.64 354.08,425.11 370.20,419.12 386.33,418.25 402.45,412.28 418.57,407.36 434.69,403.74 450.82,403.94 466.94,396.99 483.06,392.40 499.18,388.15 515.31,390.82 531.43,381.78 547.55,376.88 563.67,379.90 579.80,376.47 595.92,360.62 612.04,363.35 628.16,362.17 644.29,356.80 660.41,351.27 676.53,349.80 692.65,346.57 708.78,339.36 724.90,335.23 741.02,337.00 757.14,330.32 773.27,327.74 789.39,330.39 805.51,326.12 821.63,314.54 837.76,319.89 853.88,315.58 870.00,302.05" fill="none" stroke="#0077b6" stroke-width="3" />
<circle cx="80.00" cy="484.97" r="3.5" fill="#0077b6" />
<circle cx="96.12" cy="481.29" r="3.5" fill="#0077b6" />
<circle cx="112.24" cy="477.92" r="3.5" fill="#0077b6" />
<circle cx="128.37" cy="474.19" r="3.5" fill="#0077b6" />
<circle cx="144.49" cy="470.74" r="3.5" fill="#0077b6" />
<circle cx="160.61" cy="467.55" r="3.5" fill="#0077b6" />
<circle cx="176.73" cy="463.77" r="3.5" fill="#0077b6" />
<circle cx="192.86" cy="459.76" r="3.5" fill="#0077b6" />
<circle cx="208.98" cy="457.11" r="3.5" fill="#0077b6" />
<circle cx="225.10" cy="452.64" r="3.5" fill="#0077b6" />
<circle cx="241.22" cy="449.41" r="3.5" fill="#0077b6" />
<circle cx="257.35" cy="444.16" r="3.5" fill="#0077b6" />
<circle cx="273.47" cy="442.30" r="3.5" fill="#0077b6" />
<circle cx="289.59" cy="438.67" r="3.5" fill="#0077b6" />
<circle cx="305.71" cy="432.35" r="3.5" fill="#0077b6" />
<circle cx="321.84" cy="430.54" r="3.5" fill="#0077b6" />
<circle cx="337.96" cy="427.64" r="3.5" fill="#0077b6" />
<circle cx="354.08" cy="425.11" r="3.5" fill="#0077b6" />
<circle cx="370.20" cy="419.12" r="3.5" fill="#0077b6" />
<circle cx="386.33" cy="418.25" r="3.5" fill="#0077b6" />
<circle cx="402.45" cy="412.28" r="3.5" fill="#0077b6" />
<circle cx="418.57" cy="407.36" r="3.5" fill="#0077b6" />
<circle cx="434.69" cy="403.74" r="3.5" fill="#0077b6" />
<circle cx="450.82" cy="403.94" r="3.5" fill="#0077b6" />
<circle cx="466.94" cy="396.99" r="3.5" fill="#0077b6" />
<circle cx="483.06" cy="392.40" r="3.5" fill="#0077b6" />
<circle cx="499.18" cy="388.15" r="3.5" fill="#0077b6" />
<circle cx="515.31" cy="390.82" r="3.5" fill="#0077b6" />
<circle cx="531.43" cy="381.78" r="3.5" fill="#0077b6" />
<circle cx="547.55" cy="376.88" r="3.5" fill="#0077b6" />
<circle cx="563.67" cy="379.90" r="3.5" fill="#0077b6" />
<circle cx="579.80" cy="376.47" r="3.5" fill="#0077b6" />
<circle cx="595.92" cy="360.62" r="3.5" fill="#0077b6" />
<circle cx="612.04" cy="363.35" r="3.5" fill="#0077b6" />
<circle cx="628.16" cy="362.17" r="3.5" fill="#0077b6" />
<circle cx="644.29" cy="356.80" r="3.5" fill="#0077b6" />
<circle cx="660.41" cy="351.27" r="3.5" fill="#0077b6" />
<circle cx="676.53" cy="349.80" r="3.5" fill="#0077b6" />
<circle cx="692.65" cy="346.57" r="3.5" fill="#0077b6" />
<circle cx="708.78" cy="339.36" r="3.5" fill="#0077b6" />
<circle cx="724.90" cy="335.23" r="3.5" fill="#0077b6" />
<circle cx="741.02" cy="337.00" r="3.5" fill="#0077b6" />
<circle cx="757.14" cy="330.32" r="3.5" fill="#0077b6" />
<circle cx="773.27" cy="327.74" r="3.5" fill="#0077b6" />
<circle cx="789.39" cy="330.39" r="3.5" fill="#0077b6" />
<circle cx="805.51" cy="326.12" r="3.5" fill="#0077b6" />
<circle cx="821.63" cy="314.54" r="3.5" fill="#0077b6" />
<circle cx="837.76" cy="319.89" r="3.5" fill="#0077b6" />
<circle cx="853.88" cy="315.58" r="3.5" fill="#0077b6" />
<circle cx="870.00" cy="302.05" r="3.5" fill="#0077b6" /><polyline points="80.00,484.99 96.12,483.84 112.24,482.69 128.37,481.41 144.49,480.43 160.61,479.23 176.73,477.86 192.86,476.91 208.98,475.51 225.10,474.53 241.22,473.48 257.35,472.73 273.47,470.98 289.59,470.12 305.71,468.47 321.84,467.22 337.96,466.51 354.08,465.28 370.20,463.92 386.33,462.88 402.45,461.44 418.57,460.15 434.69,459.30 450.82,458.53 466.94,456.67 483.06,456.00 499.18,455.46 515.31,453.28 531.43,451.79 547.55,450.33 563.67,449.45 579.80,449.61 595.92,448.05 612.04,444.99 628.16,445.18 644.29,444.27 660.41,441.85 676.53,440.74 692.65,441.15 708.78,439.57 724.90,436.39 741.02,439.01 757.14,435.01 773.27,434.95 789.39,433.16 805.51,433.65 821.63,431.67 837.76,431.14 853.88,429.53 870.00,427.07" fill="none" stroke="#2a9d8f" stroke-width="3" />
<circle cx="80.00" cy="484.99" r="3.5" fill="#2a9d8f" />
<circle cx="96.12" cy="483.84" r="3.5" fill="#2a9d8f" />
<circle cx="112.24" cy="482.69" r="3.5" fill="#2a9d8f" />
<circle cx="128.37" cy="481.41" r="3.5" fill="#2a9d8f" />
<circle cx="144.49" cy="480.43" r="3.5" fill="#2a9d8f" />
<circle cx="160.61" cy="479.23" r="3.5" fill="#2a9d8f" />
<circle cx="176.73" cy="477.86" r="3.5" fill="#2a9d8f" />
<circle cx="192.86" cy="476.91" r="3.5" fill="#2a9d8f" />
<circle cx="208.98" cy="475.51" r="3.5" fill="#2a9d8f" />
<circle cx="225.10" cy="474.53" r="3.5" fill="#2a9d8f" />
<circle cx="241.22" cy="473.48" r="3.5" fill="#2a9d8f" />
<circle cx="257.35" cy="472.73" r="3.5" fill="#2a9d8f" />
<circle cx="273.47" cy="470.98" r="3.5" fill="#2a9d8f" />
<circle cx="289.59" cy="470.12" r="3.5" fill="#2a9d8f" />
<circle cx="305.71" cy="468.47" r="3.5" fill="#2a9d8f" />
<circle cx="321.84" cy="467.22" r="3.5" fill="#2a9d8f" />
<circle cx="337.96" cy="466.51" r="3.5" fill="#2a9d8f" />
<circle cx="354.08" cy="465.28" r="3.5" fill="#2a9d8f" />
<circle cx="370.20" cy="463.92" r="3.5" fill="#2a9d8f" />
<circle cx="386.33" cy="462.88" r="3.5" fill="#2a9d8f" />
<circle cx="402.45" cy="461.44" r="3.5" fill="#2a9d8f" />
<circle cx="418.57" cy="460.15" r="3.5" fill="#2a9d8f" />
<circle cx="434.69" cy="459.30" r="3.5" fill="#2a9d8f" />
<circle cx="450.82" cy="458.53" r="3.5" fill="#2a9d8f" />
<circle cx="466.94" cy="456.67" r="3.5" fill="#2a9d8f" />
<circle cx="483.06" cy="456.00" r="3.5" fill="#2a9d8f" />
<circle cx="499.18" cy="455.46" r="3.5" fill="#2a9d8f" />
<circle cx="515.31" cy="453.28" r="3.5" fill="#2a9d8f" />
<circle cx="531.43" cy="451.79" r="3.5" fill="#2a9d8f" />
<circle cx="547.55" cy="450.33" r="3.5" fill="#2a9d8f" />
<circle cx="563.67" cy="449.45" r="3.5" fill="#2a9d8f" />
<circle cx="579.80" cy="449.61" r="3.5" fill="#2a9d8f" />
<circle cx="595.92" cy="448.05" r="3.5" fill="#2a9d8f" />
<circle cx="612.04" cy="444.99" r="3.5" fill="#2a9d8f" />
<circle cx="628.16" cy="445.18" r="3.5" fill="#2a9d8f" />
<circle cx="644.29" cy="444.27" r="3.5" fill="#2a9d8f" />
<circle cx="660.41" cy="441.85" r="3.5" fill="#2a9d8f" />
<circle cx="676.53" cy="440.74" r="3.5" fill="#2a9d8f" />
<circle cx="692.65" cy="441.15" r="3.5" fill="#2a9d8f" />
<circle cx="708.78" cy="439.57" r="3.5" fill="#2a9d8f" />
<circle cx="724.90" cy="436.39" r="3.5" fill="#2a9d8f" />
<circle cx="741.02" cy="439.01" r="3.5" fill="#2a9d8f" />
<circle cx="757.14" cy="435.01" r="3.5" fill="#2a9d8f" />
<circle cx="773.27" cy="434.95" r="3.5" fill="#2a9d8f" />
<circle cx="789.39" cy="433.16" r="3.5" fill="#2a9d8f" />
<circle cx="805.51" cy="433.65" r="3.5" fill="#2a9d8f" />
<circle cx="821.63" cy="431.67" r="3.5" fill="#2a9d8f" />
<circle cx="837.76" cy="431.14" r="3.5" fill="#2a9d8f" />
<circle cx="853.88" cy="429.53" r="3.5" fill="#2a9d8f" />
<circle cx="870.00" cy="427.07" r="3.5" fill="#2a9d8f" /><polyline points="80.00,484.94 96.12,476.19 112.24,468.39 128.37,459.74 144.49,451.37 160.61,444.19 176.73,435.60 192.86,425.46 208.98,420.31 225.10,408.87 241.22,401.26 257.35,387.02 273.47,384.94 289.59,375.76 305.71,360.11 321.84,357.16 337.96,349.88 354.08,344.75 370.20,329.50 386.33,329.01 402.45,313.96 418.57,301.78 434.69,292.61 450.82,294.76 466.94,277.62 483.06,265.19 499.18,253.51 515.31,265.88 531.43,241.75 547.55,229.98 563.67,240.78 579.80,230.19 595.92,185.75 612.04,200.07 628.16,196.16 644.29,181.87 660.41,170.13 676.53,167.93 692.65,157.42 708.78,138.93 724.90,132.90 741.02,132.97 757.14,120.94 773.27,113.32 789.39,124.85 805.51,111.07 821.63,80.29 837.76,97.40 853.88,87.69 870.00,52.00" fill="none" stroke="#d1495b" stroke-width="3" />
<circle cx="80.00" cy="484.94" r="3.5" fill="#d1495b" />
<circle cx="96.12" cy="476.19" r="3.5" fill="#d1495b" />
<circle cx="112.24" cy="468.39" r="3.5" fill="#d1495b" />
<circle cx="128.37" cy="459.74" r="3.5" fill="#d1495b" />
<circle cx="144.49" cy="451.37" r="3.5" fill="#d1495b" />
<circle cx="160.61" cy="444.19" r="3.5" fill="#d1495b" />
<circle cx="176.73" cy="435.60" r="3.5" fill="#d1495b" />
<circle cx="192.86" cy="425.46" r="3.5" fill="#d1495b" />
<circle cx="208.98" cy="420.31" r="3.5" fill="#d1495b" />
<circle cx="225.10" cy="408.87" r="3.5" fill="#d1495b" />
<circle cx="241.22" cy="401.26" r="3.5" fill="#d1495b" />
<circle cx="257.35" cy="387.02" r="3.5" fill="#d1495b" />
<circle cx="273.47" cy="384.94" r="3.5" fill="#d1495b" />
<circle cx="289.59" cy="375.76" r="3.5" fill="#d1495b" />
<circle cx="305.71" cy="360.11" r="3.5" fill="#d1495b" />
<circle cx="321.84" cy="357.16" r="3.5" fill="#d1495b" />
<circle cx="337.96" cy="349.88" r="3.5" fill="#d1495b" />
<circle cx="354.08" cy="344.75" r="3.5" fill="#d1495b" />
<circle cx="370.20" cy="329.50" r="3.5" fill="#d1495b" />
<circle cx="386.33" cy="329.01" r="3.5" fill="#d1495b" />
<circle cx="402.45" cy="313.96" r="3.5" fill="#d1495b" />
<circle cx="418.57" cy="301.78" r="3.5" fill="#d1495b" />
<circle cx="434.69" cy="292.61" r="3.5" fill="#d1495b" />
<circle cx="450.82" cy="294.76" r="3.5" fill="#d1495b" />
<circle cx="466.94" cy="277.62" r="3.5" fill="#d1495b" />
<circle cx="483.06" cy="265.19" r="3.5" fill="#d1495b" />
<circle cx="499.18" cy="253.51" r="3.5" fill="#d1495b" />
<circle cx="515.31" cy="265.88" r="3.5" fill="#d1495b" />
<circle cx="531.43" cy="241.75" r="3.5" fill="#d1495b" />
<circle cx="547.55" cy="229.98" r="3.5" fill="#d1495b" />
<circle cx="563.67" cy="240.78" r="3.5" fill="#d1495b" />
<circle cx="579.80" cy="230.19" r="3.5" fill="#d1495b" />
<circle cx="595.92" cy="185.75" r="3.5" fill="#d1495b" />
<circle cx="612.04" cy="200.07" r="3.5" fill="#d1495b" />
<circle cx="628.16" cy="196.16" r="3.5" fill="#d1495b" />
<circle cx="644.29" cy="181.87" r="3.5" fill="#d1495b" />
<circle cx="660.41" cy="170.13" r="3.5" fill="#d1495b" />
<circle cx="676.53" cy="167.93" r="3.5" fill="#d1495b" />
<circle cx="692.65" cy="157.42" r="3.5" fill="#d1495b" />
<circle cx="708.78" cy="138.93" r="3.5" fill="#d1495b" />
<circle cx="724.90" cy="132.90" r="3.5" fill="#d1495b" />
<circle cx="741.02" cy="132.97" r="3.5" fill="#d1495b" />
<circle cx="757.14" cy="120.94" r="3.5" fill="#d1495b" />
<circle cx="773.27" cy="113.32" r="3.5" fill="#d1495b" />
<circle cx="789.39" cy="124.85" r="3.5" fill="#d1495b" />
<circle cx="805.51" cy="111.07" r="3.5" fill="#d1495b" />
<circle cx="821.63" cy="80.29" r="3.5" fill="#d1495b" />
<circle cx="837.76" cy="97.40" r="3.5" fill="#d1495b" />
<circle cx="853.88" cy="87.69" r="3.5" fill="#d1495b" />
<circle cx="870.00" cy="52.00" r="3.5" fill="#d1495b" />
<line x1="650" y1="72" x2="675" y2="72" stroke="#0077b6" stroke-width="3" /><text x="685" y="77">Average X/Y/Z</text><line x1="650" y1="94" x2="675" y2="94" stroke="#2a9d8f" stroke-width="3" /><text x="685" y="99">Horizontal X/Y</text><line x1="650" y1="116" x2="675" y2="116" stroke="#d1495b" stroke-width="3" /><text x="685" y="121">Vertical Z</text>
<text x="475.0" y="548" text-anchor="middle" class="label">Max independent tag coordinate error (cm)</text>
<text x="22" y="268.5" text-anchor="middle" class="label" transform="rotate(-90 22 268.5)">Output position error (cm)</text>
</svg>
