<svg xmlns="http://www.w3.org/2000/svg" width="900" height="1330" viewBox="0 0 900 1330">
<rect width="100%" height="100%" fill="#ffffff" />
<style>
text { font-family: Arial, sans-serif; font-size: 13px; fill: #222; }
.title { font-size: 22px; font-weight: 700; }
.panel-title { font-size: 17px; font-weight: 700; }
.label { font-size: 14px; font-weight: 600; }
</style>
<text x="450.0" y="28" text-anchor="middle" class="title">Top Tag Point Distribution Candidates</text>

<g>
<text x="45" y="70" class="panel-title">Candidate 1: average output error 26.62 cm</text>
<rect x="45" y="92" width="190" height="190" fill="#fafafa" stroke="#333" />
<text x="140.0" y="82" text-anchor="middle" class="label">Top view: X/Y (m)</text>
<circle cx="112.54" cy="157.23" r="5" fill="#0077b6" /><circle cx="185.37" cy="238.94" r="5" fill="#0077b6" /><circle cx="164.68" cy="259.43" r="5" fill="#0077b6" /><circle cx="140.22" cy="184.65" r="5" fill="#0077b6" /><circle cx="176.02" cy="193.81" r="5" fill="#0077b6" /><circle cx="138.90" cy="136.53" r="5" fill="#0077b6" /><circle cx="94.14" cy="215.44" r="5" fill="#0077b6" />
<circle cx="138.14" cy="183.62" r="7" fill="#d1495b" />
<path d="M 130.14 183.62 L 146.14 183.62 M 138.14 175.62 L 138.14 191.62" stroke="#ffffff" stroke-width="2" />
<text x="120.54" y="161.23">T1</text><text x="193.37" y="242.94">T2</text><text x="172.68" y="263.43">T3</text><text x="148.22" y="188.65">T4</text><text x="184.02" y="197.81">T5</text><text x="146.90" y="140.53">T6</text><text x="102.14" y="219.44">T7</text>
<rect x="315" y="146" width="360" height="90" fill="#fafafa" stroke="#333" />
<text x="495.0" y="136" text-anchor="middle" class="label">Side view: X/Z (m)</text>
<circle cx="442.98" cy="176.30" r="5" fill="#0077b6" /><circle cx="580.96" cy="205.62" r="5" fill="#0077b6" /><circle cx="541.75" cy="198.26" r="5" fill="#0077b6" /><circle cx="495.42" cy="205.26" r="5" fill="#0077b6" /><circle cx="563.26" cy="215.30" r="5" fill="#0077b6" /><circle cx="492.92" cy="206.99" r="5" fill="#0077b6" /><circle cx="408.11" cy="222.33" r="5" fill="#0077b6" />
<circle cx="491.48" cy="191.26" r="7" fill="#d1495b" />
<path d="M 483.48 191.26 L 499.48 191.26 M 491.48 183.26 L 491.48 199.26" stroke="#ffffff" stroke-width="2" />
<text x="315" y="264">Blue: tags. Red: target. Ranked from repeated noisy measurement solves.</text>
</g>

<g>
<text x="45" y="325" class="panel-title">Candidate 2: average output error 42.95 cm</text>
<rect x="45" y="347" width="190" height="190" fill="#fafafa" stroke="#333" />
<text x="140.0" y="337" text-anchor="middle" class="label">Top view: X/Y (m)</text>
<circle cx="100.58" cy="518.19" r="5" fill="#0077b6" /><circle cx="214.99" cy="381.56" r="5" fill="#0077b6" /><circle cx="142.69" cy="436.04" r="5" fill="#0077b6" /><circle cx="203.77" cy="515.60" r="5" fill="#0077b6" /><circle cx="92.50" cy="476.62" r="5" fill="#0077b6" /><circle cx="78.73" cy="410.24" r="5" fill="#0077b6" /><circle cx="83.74" cy="364.50" r="5" fill="#0077b6" />
<circle cx="138.14" cy="438.62" r="7" fill="#d1495b" />
<path d="M 130.14 438.62 L 146.14 438.62 M 138.14 430.62 L 138.14 446.62" stroke="#ffffff" stroke-width="2" />
<text x="108.58" y="522.19">T1</text><text x="222.99" y="385.56">T2</text><text x="150.69" y="440.04">T3</text><text x="211.77" y="519.60">T4</text><text x="100.50" y="480.62">T5</text><text x="86.73" y="414.24">T6</text><text x="91.74" y="368.50">T7</text>
<rect x="315" y="401" width="360" height="90" fill="#fafafa" stroke="#333" />
<text x="495.0" y="391" text-anchor="middle" class="label">Side view: X/Z (m)</text>
<circle cx="420.31" cy="423.80" r="5" fill="#0077b6" /><circle cx="637.08" cy="437.20" r="5" fill="#0077b6" /><circle cx="500.09" cy="430.30" r="5" fill="#0077b6" /><circle cx="615.83" cy="482.24" r="5" fill="#0077b6" /><circle cx="405.00" cy="480.44" r="5" fill="#0077b6" /><circle cx="378.91" cy="408.84" r="5" fill="#0077b6" /><circle cx="388.40" cy="438.76" r="5" fill="#0077b6" />
<circle cx="491.48" cy="446.26" r="7" fill="#d1495b" />
<path d="M 483.48 446.26 L 499.48 446.26 M 491.48 438.26 L 491.48 454.26" stroke="#ffffff" stroke-width="2" />
<text x="315" y="519">Blue: tags. Red: target. Ranked from repeated noisy measurement solves.</text>
</g>

<g>
<text x="45" y="580" class="panel-title">Candidate 3: average output error 43.14 cm</text>
<rect x="45" y="602" width="190" height="190" fill="#fafafa" stroke="#333" />
<text x="140.0" y="592" text-anchor="middle" class="label">Top view: X/Y (m)</text>
<circle cx="146.25" cy="674.38" r="5" fill="#0077b6" /><circle cx="132.74" cy="615.10" r="5" fill="#0077b6" /><circle cx="64.54" cy="735.46" r="5" fill="#0077b6" /><circle cx="221.90" cy="728.63" r="5" fill="#0077b6" /><circle cx="196.37" cy="778.90" r="5" fill="#0077b6" /><circle cx="74.14" cy="671.14" r="5" fill="#0077b6" /><circle cx="142.77" cy="712.63" r="5" fill="#0077b6" />
<circle cx="138.14" cy="693.62" r="7" fill="#d1495b" />
<path d="M 130.14 693.62 L 146.14 693.62 M 138.14 685.62 L 138.14 701.62" stroke="#ffffff" stroke-width="2" />
<text x="154.25" y="678.38">T1</text><text x="140.74" y="619.10">T2</text><text x="72.54" y="739.46">T3</text><text x="229.90" y="732.63">T4</text><text x="204.37" y="782.90">T5</text><text x="82.14" y="675.14">T6</text><text x="150.77" y="716.63">T7</text>
<rect x="315" y="656" width="360" height="90" fill="#fafafa" stroke="#333" />
<text x="495.0" y="646" text-anchor="middle" class="label">Side view: X/Z (m)</text>
<circle cx="506.85" cy="662.71" r="5" fill="#0077b6" /><circle cx="481.24" cy="738.29" r="5" fill="#0077b6" /><circle cx="352.02" cy="688.81" r="5" fill="#0077b6" /><circle cx="650.17" cy="718.51" r="5" fill="#0077b6" /><circle cx="601.80" cy="698.79" r="5" fill="#0077b6" /><circle cx="370.21" cy="739.79" r="5" fill="#0077b6" /><circle cx="500.25" cy="718.00" r="5" fill="#0077b6" />
<circle cx="491.48" cy="701.26" r="7" fill="#d1495b" />
<path d="M 483.48 701.26 L 499.48 701.26 M 491.48 693.26 L 491.48 709.26" stroke="#ffffff" stroke-width="2" />
<text x="315" y="774">Blue: tags. Red: target. Ranked from repeated noisy measurement solves.</text>
</g>

<g>
<text x="45" y="835" class="panel-title">Candidate 4: average output error 44.56 cm</text>
<rect x="45" y="857" width="190" height="190" fill="#fafafa" stroke="#333" />
<text x="140.0" y="847" text-anchor="middle" class="label">Top view: X/Y (m)</text>
<circle cx="162.34" cy="993.43" r="5" fill="#0077b6" /><circle cx="141.49" cy="952.55" r="5" fill="#0077b6" /><circle cx="62.82" cy="1006.60" r="5" fill="#0077b6" /><circle cx="154.16" cy="937.70" r="5" fill="#0077b6" /><circle cx="158.72" cy="1033.05" r="5" fill="#0077b6" /><circle cx="98.39" cy="1024.21" r="5" fill="#0077b6" /><circle cx="59.72" cy="913.13" r="5" fill="#0077b6" />
<circle cx="138.14" cy="948.62" r="7" fill="#d1495b" />
<path d="M 130.14 948.62 L 146.14 948.62 M 138.14 940.62 L 138.14 956.62" stroke="#ffffff" stroke-width="2" />
<text x="170.34" y="997.43">T1</text><text x="149.49" y="956.55">T2</text><text x="70.82" y="1010.60">T3</text><text x="162.16" y="941.70">T4</text><text x="166.72" y="1037.05">T5</text><text x="106.39" y="1028.21">T6</text><text x="67.72" y="917.13">T7</text>
<rect x="315" y="911" width="360" height="90" fill="#fafafa" stroke="#333" />
<text x="495.0" y="901" text-anchor="middle" class="label">Side view: X/Z (m)</text>
<circle cx="537.34" cy="932.11" r="5" fill="#0077b6" /><circle cx="497.83" cy="947.96" r="5" fill="#0077b6" /><circle cx="348.76" cy="958.08" r="5" fill="#0077b6" /><circle cx="521.83" cy="933.69" r="5" fill="#0077b6" /><circle cx="530.47" cy="993.40" r="5" fill="#0077b6" /><circle cx="416.16" cy="994.35" r="5" fill="#0077b6" /><circle cx="342.88" cy="957.45" r="5" fill="#0077b6" />
<circle cx="491.48" cy="956.26" r="7" fill="#d1495b" />
<path d="M 483.48 956.26 L 499.48 956.26 M 491.48 948.26 L 491.48 964.26" stroke="#ffffff" stroke-width="2" />
<text x="315" y="1029">Blue: tags. Red: target. Ranked from repeated noisy measurement solves.</text>
</g>

<g>
<text x="45" y="1090" class="panel-title">Candidate 5: average output error 44.83 cm</text>
<rect x="45" y="1112" width="190" height="190" fill="#fafafa" stroke="#333" />
<text x="140.0" y="1102" text-anchor="middle" class="label">Top view: X/Y (m)</text>
<circle cx="161.91" cy="1232.09" r="5" fill="#0077b6" /><circle cx="129.73" cy="1193.83" r="5" fill="#0077b6" /><circle cx="154.97" cy="1155.35" r="5" fill="#0077b6" /><circle cx="137.59" cy="1228.09" r="5" fill="#0077b6" /><circle cx="58.10" cy="1204.64" r="5" fill="#0077b6" /><circle cx="111.12" cy="1270.98" r="5" fill="#0077b6" /><circle cx="140.47" cy="1190.63" r="5" fill="#0077b6" />
<circle cx="138.14" cy="1203.62" r="7" fill="#d1495b" />
<path d="M 130.14 1203.62 L 146.14 1203.62 M 138.14 1195.62 L 138.14 1211.62" stroke="#ffffff" stroke-width="2" />
<text x="169.91" y="1236.09">T1</text><text x="137.73" y="1197.83">T2</text><text x="162.97" y="1159.35">T3</text><text x="145.59" y="1232.09">T4</text><text x="66.10" y="1208.64">T5</text><text x="119.12" y="1274.98">T6</text><text x="148.47" y="1194.63">T7</text>
<rect x="315" y="1166" width="360" height="90" fill="#fafafa" stroke="#333" />
<text x="495.0" y="1156" text-anchor="middle" class="label">Side view: X/Z (m)</text>
<circle cx="536.51" cy="1236.08" r="5" fill="#0077b6" /><circle cx="475.53" cy="1248.33" r="5" fill="#0077b6" /><circle cx="523.37" cy="1172.21" r="5" fill="#0077b6" /><circle cx="490.43" cy="1206.87" r="5" fill="#0077b6" /><circle cx="339.83" cy="1210.98" r="5" fill="#0077b6" /><circle cx="440.28" cy="1189.88" r="5" fill="#0077b6" /><circle cx="495.89" cy="1217.14" r="5" fill="#0077b6" />
<circle cx="491.48" cy="1211.26" r="7" fill="#d1495b" />
<path d="M 483.48 1211.26 L 499.48 1211.26 M 491.48 1203.26 L 491.48 1219.26" stroke="#ffffff" stroke-width="2" />
<text x="315" y="1284">Blue: tags. Red: target. Ranked from repeated noisy measurement solves.</text>
</g>

</svg>
